<svg xmlns="http://www.w3.org/2000/svg" xmlns:xlink="http://www.w3.org/1999/xlink" width="288" height="64" viewBox="0 0 288 64"><defs><path id="a" d="M467.8 93.79l6.23-11.74c1.9-3.59 3.77-7.18 5.69-10.76.13-.26.46-.53.73-.57.2-.03.56.26.68.48 3.93 7.4 7.84 14.8 11.75 22.2.08.15.12.31.22.56-1.75 0-3.4.01-5.05-.02-.19 0-.44-.25-.54-.44-.38-.7-.72-1.4-1.03-2.11-.18-.42-.42-.62-.92-.61-3.41.02-6.82 0-10.23.03-.29 0-.58.34-.86.52-.03.01-.03.05-.05.08-.4.83-.6 2.01-1.27 2.4-.76.42-1.95.14-2.96.15h-2.4v-.17zm16.62-6.57l-3.85-8.07h-.29l-3.85 8.07h7.99zM587 74.72h-7.8V93.9h-4.83V74.8h-7.77v-4.06c.22-.02.44-.06.67-.06h19.02c.24 0 .47.03.71.05v3.99zm-69.45 19.24c-1.93 0-3.64.02-5.35-.03-.25 0-.53-.32-.71-.55-1.5-1.98-2.97-3.96-4.43-5.95-.3-.42-.63-.6-1.17-.59-1.8.04-3.6.01-5.48.01v7.04h-4.79V70.76c.15-.02.31-.08.47-.08 3.77 0 7.53-.02 11.3.04 2.3.04 4.46.63 6.24 2.13 3.91 3.28 3.26 9.9-1.2 12.5-.92.54-.93.54-.27 1.4l4.75 6.15c.21.27.36.6.64 1.06zm-17.12-11.08h5.45c.53 0 1.07.02 1.6-.06 2.44-.39 3.68-1.7 3.71-3.9.04-2.09-1.13-3.68-3.31-3.93-2.46-.28-4.95-.22-7.45-.3v8.2zM526.21 88c-.18.16-.2.53-.2.8-.02 1.68-.01 3.35-.01 5.1h-4.76V70.74H526v10.88c.35-.34.57-.52.76-.72 3.2-3.21 6.4-6.42 9.58-9.65.43-.44.86-.61 1.47-.6 1.66.04 3.31.01 5.27.01-.34.47-.51.77-.74 1l-8.08 8.19c-.23.22-.44.46-.72.76L543 93.7l-.2.25c-1.85 0-3.7.01-5.55-.03-.21 0-.46-.31-.62-.53l-5.93-8.52-.38-.53c-1.38 1.22-2.77 2.42-4.12 3.65zm38.41-17.28v4.05h-13.66v5.66h11.24v3.84h-11.24v5.5h13.64v4.14h-18.44V70.72h18.46zM411.16 82.14c-.03-7.1 5.17-12.1 12.6-12.13 7.4-.03 12.68 4.99 12.7 12.07.03 7.08-5.22 12.17-12.59 12.21-7.42.05-12.67-4.98-12.7-12.15zm12.64-7.63c-4.48 0-7.65 3.15-7.66 7.6a7.39 7.39 0 0 0 7.68 7.68 7.44 7.44 0 0 0 7.68-7.7c0-4.4-3.23-7.58-7.7-7.58zm-16.8 1.9c-5.16-3.37-9.76-1.74-11.84.87a8.13 8.13 0 0 0 .43 10.23c2.42 2.55 7.37 3.39 11.4.36l1.36 1.77 1.3 1.72c-3.16 3.42-12.27 4.5-17.48-.44-4.95-4.7-4.77-13.3.42-17.93 4.94-4.4 13.96-3.52 17.07-.07l-2.66 3.5zm-37.2 17.31V70.56h4.78v19.06h12.72v4.1h-17.5z"/><path id="b" d="M342 93.61l6.23-11.74c1.9-3.58 3.78-7.18 5.7-10.76.13-.25.46-.53.73-.57.2-.02.56.26.68.5 3.93 7.39 7.84 14.8 11.75 22.2.07.14.12.3.22.55-1.75 0-3.4.01-5.05-.03-.19 0-.44-.24-.54-.44-.38-.68-.72-1.39-1.03-2.1-.19-.43-.42-.62-.92-.62-3.41.02-6.82 0-10.23.04-.29 0-.58.33-.86.52-.03.01-.04.05-.05.07-.4.83-.6 2.02-1.27 2.4-.76.43-1.95.14-2.96.16H342v-.18zm16.63-6.56l-3.87-8.1-.29.05-3.83 8.05h8z"/><path id="c" d="M465.2 70.6v23.13h-4.7V80.1c-.34.29-.53.44-.7.61-1.87 1.83-3.76 3.62-5.56 5.5-.8.84-1.53.87-2.35.03-2-2.04-4.1-4-6.28-6.1v13.6h-4.8V70.6c.8-.25 1.4-.05 1.98.54 3.26 3.36 6.55 6.69 9.87 10.07l3.68-3.48c2.34-2.21 4.69-4.42 7-6.66.55-.55 1.1-.68 1.87-.48z"/><path id="d" d="M351.96 110.9c0 .8-.1 1.53-.32 2.17a4.75 4.75 0 0 1-.9 1.63c-.38.45-.85.8-1.4 1.03-.55.24-1.16.35-1.84.35-.66 0-1.26-.11-1.81-.35a3.97 3.97 0 0 1-1.42-1.03c-.4-.45-.71-1-.93-1.63a6.67 6.67 0 0 1-.33-2.17v-.68c0-.8.11-1.53.33-2.18.22-.64.53-1.19.92-1.64.39-.44.86-.79 1.41-1.03a4.5 4.5 0 0 1 1.81-.36c.68 0 1.3.12 1.85.36a3.9 3.9 0 0 1 1.41 1.03c.4.45.7 1 .9 1.64.21.65.32 1.37.32 2.18zm-1.46-.7c0-.64-.07-1.2-.2-1.7-.14-.5-.33-.9-.6-1.24a2.53 2.53 0 0 0-.95-.77 3 3 0 0 0-1.27-.26c-.45 0-.86.1-1.24.26-.37.18-.68.43-.95.77-.26.33-.46.75-.6 1.24-.15.5-.22 1.06-.22 1.7v.7c0 .64.07 1.21.22 1.7.14.5.35.92.61 1.25.27.34.59.6.96.77.37.17.78.26 1.24.26a3 3 0 0 0 1.27-.26c.38-.17.69-.43.95-.77.25-.33.45-.75.58-1.24.13-.5.2-1.07.2-1.71zm10.78 5.74h-1.41v-3.42h-3.8v3.42h-1.42v-8.01h1.42v3.47h3.8v-3.47h1.41zm10.2-8.01v8h-1.42v-6.87h-2.8l-.1 2.3c-.04.76-.11 1.42-.21 2-.1.57-.25 1.04-.46 1.43-.21.38-.49.67-.83.86-.35.19-.79.29-1.31.29h-.41l.03-1.23h.3c.28 0 .5-.07.68-.2.17-.12.32-.31.42-.58.1-.27.19-.62.24-1.04.06-.43.1-.94.13-1.53l.15-3.43zm8.5 8c-.05-.1-.1-.22-.12-.37l-.08-.47a3.74 3.74 0 0 1-.99.7 3.15 3.15 0 0 1-1.36.3c-.43 0-.81-.07-1.15-.2-.35-.11-.64-.28-.88-.5a2.22 2.22 0 0 1-.76-1.67 2.29 2.29 0 0 1 1-1.96c.32-.23.72-.4 1.17-.5a6.4 6.4 0 0 1 1.54-.18h1.4v-.63c0-.48-.14-.86-.44-1.14-.3-.28-.73-.43-1.3-.43-.27 0-.51.04-.73.1-.22.08-.4.17-.56.29a1.3 1.3 0 0 0-.36.4.96.96 0 0 0-.13.48h-1.43c0-.29.08-.57.24-.85.15-.28.37-.54.66-.76.28-.22.63-.4 1.03-.55.4-.14.86-.2 1.36-.2.45 0 .86.05 1.24.16.38.1.7.28.98.5.27.23.48.5.63.84.15.34.23.73.23 1.18v3.72c0 .27.02.56.07.85.05.3.12.56.22.78v.12zm-2.35-1.04a2.43 2.43 0 0 0 1.33-.37 2.26 2.26 0 0 0 .8-.83v-1.64h-1.18a3.9 3.9 0 0 0-1.87.37c-.44.24-.66.61-.66 1.1 0 .2.03.38.1.54.07.17.17.32.3.44.14.12.3.21.5.29.2.07.42.1.68.1zm11.6-6.96h1.4v8h-1.4v-5.83l-3.82 5.84h-1.42v-8.01h1.42v5.85zm.37-2.92a2 2 0 0 1-.15.8c-.1.24-.26.45-.46.63-.2.17-.44.31-.72.4-.28.1-.6.16-.95.16s-.67-.05-.95-.15c-.29-.1-.53-.24-.72-.41a1.8 1.8 0 0 1-.46-.63c-.11-.24-.16-.5-.16-.8h1.15c0 .15.02.3.06.43a.92.92 0 0 0 .55.6c.14.05.32.08.53.08.2 0 .38-.03.52-.1a.91.91 0 0 0 .55-.6c.05-.12.07-.26.07-.4zm11.2 10.93h-1.41v-3.42h-3.8v3.42h-1.42v-8.01h1.42v3.47h3.8v-3.47h1.41zm13.06-6.88h-3.8v6.88h-1.43v-8.01h5.23zm7.84-1.13h1.41v8h-1.41v-5.83l-3.82 5.84h-1.41v-8.01h1.41v5.85zm11.58 8h-1.4v-6.87h-3.82v6.88h-1.42v-8.01h6.64zm6.85.15c-.58 0-1.1-.1-1.57-.28a3.49 3.49 0 0 1-1.96-2.03c-.18-.48-.26-1-.26-1.56v-.3c0-.66.1-1.24.3-1.75.2-.52.47-.95.8-1.3a3.49 3.49 0 0 1 2.51-1.08c.6 0 1.1.1 1.53.3.43.2.78.48 1.06.83.27.35.48.76.61 1.24s.2 1 .2 1.56v.61h-5.6c0 .37.07.72.19 1.04a2.32 2.32 0 0 0 2.27 1.6c.5 0 .91-.1 1.26-.29.35-.2.65-.46.91-.78l.86.65a3.69 3.69 0 0 1-1.14 1.07 4.34 4.34 0 0 1-1.98.48zm-.18-7.17a1.96 1.96 0 0 0-1.43.6c-.19.18-.34.42-.47.7-.12.3-.2.62-.26.99h4.15v-.1a3.68 3.68 0 0 0-.14-.8c-.07-.26-.19-.5-.34-.7a1.76 1.76 0 0 0-1.51-.7zm12.73 3.11c0 .59-.07 1.13-.22 1.63-.14.5-.35.92-.62 1.28a2.87 2.87 0 0 1-2.36 1.15c-.52 0-.98-.07-1.37-.23a2.78 2.78 0 0 1-1-.7v3.86h-1.42v-11.08h1.3l.06.89c.28-.34.62-.6 1.02-.77.4-.18.86-.27 1.38-.27a2.86 2.86 0 0 1 2.4 1.13c.27.36.48.79.62 1.29s.2 1.05.2 1.67zm-1.42-.15c0-.4-.04-.78-.13-1.13a2.8 2.8 0 0 0-.4-.93 2.03 2.03 0 0 0-.7-.63 2.44 2.44 0 0 0-1.65-.15 2 2 0 0 0-1.27 1.02v3.82c.09.16.2.3.32.44a1.88 1.88 0 0 0 .95.58c.2.05.42.08.67.08a1.97 1.97 0 0 0 1.68-.88c.18-.26.32-.57.4-.93.1-.36.13-.74.13-1.14zm8.2 2.25l2.8-6.2h1.77v8.02h-1.41v-5.83l-2.68 5.83h-.98l-2.72-5.95v5.95h-1.42v-8.01h1.84zm12.86 1.82c-.05-.1-.1-.23-.12-.38l-.08-.47a3.73 3.73 0 0 1-.99.7 3.15 3.15 0 0 1-1.36.3c-.43 0-.81-.07-1.15-.2-.35-.11-.64-.28-.88-.5a2.22 2.22 0 0 1-.76-1.67 2.29 2.29 0 0 1 1-1.96c.33-.23.72-.4 1.17-.5a6.4 6.4 0 0 1 1.54-.18h1.4v-.63c0-.48-.14-.86-.44-1.14-.3-.28-.73-.43-1.3-.43-.27 0-.51.04-.73.1-.22.08-.4.17-.56.29a1.3 1.3 0 0 0-.36.4.96.96 0 0 0-.13.48h-1.43c0-.29.08-.57.24-.85.15-.28.37-.54.66-.76.28-.22.63-.4 1.03-.55.4-.14.86-.2 1.36-.2.45 0 .86.05 1.24.16.38.1.7.28.98.5.27.23.48.5.63.84.15.34.23.73.23 1.18v3.72c0 .27.02.56.07.85.05.3.12.56.22.78v.12zm-2.35-1.05a2.43 2.43 0 0 0 1.33-.37 2.26 2.26 0 0 0 .8-.83v-1.64h-1.18a3.9 3.9 0 0 0-1.87.37c-.44.24-.66.61-.66 1.1 0 .2.03.38.1.54.07.17.17.32.3.44.14.12.3.21.5.29.2.07.42.1.68.1zm13.23-2.87c0 .59-.07 1.13-.22 1.63-.14.5-.35.92-.62 1.28a2.87 2.87 0 0 1-2.36 1.15c-.52 0-.98-.07-1.37-.23a2.78 2.78 0 0 1-1-.7v3.86h-1.42v-11.08h1.3l.06.89c.28-.34.62-.6 1.02-.77.4-.18.86-.27 1.38-.27a2.86 2.86 0 0 1 2.4 1.13c.27.36.48.79.62 1.29s.2 1.05.2 1.67zm-1.42-.15c0-.4-.04-.78-.13-1.13a2.8 2.8 0 0 0-.4-.93 2.03 2.03 0 0 0-.7-.63 2.44 2.44 0 0 0-1.65-.15 2 2 0 0 0-1.27 1.02v3.82c.09.16.2.3.32.44a1.88 1.88 0 0 0 .95.58c.2.05.42.08.67.08a1.97 1.97 0 0 0 1.68-.88c.18-.26.32-.57.4-.93.1-.36.13-.74.13-1.14zm6 .65h-1.02v3.42h-1.43v-8.01h1.43v3.39h.92l2.78-3.4h1.71l-3.27 3.86 3.55 4.16h-1.8zm9.86 3.56c-.57 0-1.1-.1-1.56-.28a3.5 3.5 0 0 1-1.96-2.03c-.18-.48-.27-1-.27-1.56v-.3c0-.66.1-1.24.3-1.75.2-.52.47-.95.81-1.3a3.49 3.49 0 0 1 2.5-1.08c.6 0 1.1.1 1.54.3.42.2.78.48 1.05.83.28.35.49.76.62 1.24s.2 1 .2 1.56v.61h-5.6c0 .37.07.72.18 1.04.12.32.28.6.5.84a2.32 2.32 0 0 0 1.77.77c.5 0 .92-.1 1.27-.3.34-.2.65-.46.9-.78l.87.65a3.68 3.68 0 0 1-1.14 1.07 4.34 4.34 0 0 1-1.98.48zm-.17-7.17a1.96 1.96 0 0 0-1.43.6c-.2.18-.35.42-.47.7-.13.3-.21.62-.26.99h4.14v-.1a3.68 3.68 0 0 0-.13-.8c-.07-.26-.19-.5-.34-.7a1.76 1.76 0 0 0-1.51-.7zm11.88.13h-2.77v6.9h-1.41v-6.9h-2.72v-1.11h6.9zm11.1 6.9c-.06-.1-.1-.23-.13-.38l-.07-.47a3.72 3.72 0 0 1-1 .7 3.15 3.15 0 0 1-1.36.3c-.42 0-.8-.07-1.15-.2-.34-.11-.63-.28-.88-.5a2.22 2.22 0 0 1-.76-1.67c0-.43.09-.81.26-1.14.18-.33.42-.6.75-.83.32-.22.71-.38 1.17-.5a6.4 6.4 0 0 1 1.54-.17h1.4v-.63c0-.48-.14-.86-.44-1.14-.3-.28-.73-.43-1.3-.43-.27 0-.51.04-.73.1-.22.08-.4.17-.56.29a1.3 1.3 0 0 0-.37.4.96.96 0 0 0-.13.48h-1.42c0-.29.08-.57.23-.85.16-.28.38-.54.67-.76.28-.22.63-.4 1.03-.55.4-.14.86-.2 1.36-.2.45 0 .86.05 1.24.16.38.1.7.28.97.5.27.23.49.5.64.84.15.34.23.73.23 1.18v3.72c0 .27.02.56.07.85.05.3.12.56.22.78v.12zm-2.35-1.05a2.43 2.43 0 0 0 1.33-.37 2.26 2.26 0 0 0 .8-.83v-1.64h-1.18a3.9 3.9 0 0 0-1.88.37c-.43.24-.65.61-.65 1.1 0 .2.03.38.1.54.06.17.16.32.3.44.13.12.3.21.5.29.2.07.42.1.68.1zm13.02-6.96v8h-1.42v-6.87h-2.8l-.1 2.3c-.04.76-.11 1.42-.21 2-.1.57-.25 1.04-.46 1.43-.21.38-.49.67-.84.86-.34.19-.78.29-1.3.29h-.41l.03-1.23h.3c.28 0 .5-.07.68-.2.17-.12.31-.31.42-.58.1-.27.19-.62.24-1.04.06-.43.1-.94.13-1.53l.15-3.43zm5.97 4.6h-1.03v3.4h-1.43v-8h1.43v3.39h.92l2.78-3.4h1.71l-3.27 3.86 3.55 4.16h-1.8zm6.05-.67c0-.58.09-1.12.26-1.62.18-.5.43-.92.75-1.29.32-.36.72-.65 1.18-.86.46-.2.98-.3 1.56-.3.59 0 1.11.1 1.58.3.46.2.86.5 1.19.86.32.37.57.8.74 1.3.18.49.26 1.03.26 1.6v.17c0 .58-.08 1.12-.26 1.62a3.44 3.44 0 0 1-1.93 2.14c-.46.2-.98.3-1.57.3-.58 0-1.1-.1-1.56-.3-.47-.2-.86-.5-1.19-.85a3.8 3.8 0 0 1-.75-1.3 4.8 4.8 0 0 1-.26-1.6zm1.42.16c0 .4.05.78.14 1.13.1.36.25.67.44.94a2.14 2.14 0 0 0 1.76.88 2.13 2.13 0 0 0 1.76-.88c.2-.27.34-.58.44-.94.1-.35.15-.73.15-1.13v-.16c0-.4-.05-.77-.15-1.13-.1-.36-.25-.67-.44-.94a2.13 2.13 0 0 0-1.77-.88 2.07 2.07 0 0 0-1.75.88c-.2.27-.34.58-.44.94-.1.36-.14.73-.14 1.13zm14.47-2.96h-3.82v6.88h-1.42v-8.01h5.24zm.93 2.8c0-.58.09-1.12.27-1.62.17-.5.42-.92.74-1.29.33-.36.72-.65 1.19-.86.46-.2.98-.3 1.55-.3.59 0 1.12.1 1.58.3.47.2.86.5 1.2.86.32.37.57.8.74 1.3.17.49.26 1.03.26 1.6v.17c0 .58-.09 1.12-.26 1.62s-.42.92-.75 1.29c-.33.36-.72.64-1.18.85-.47.2-.99.3-1.57.3-.58 0-1.1-.1-1.57-.3-.46-.2-.86-.5-1.18-.85a3.8 3.8 0 0 1-.75-1.3 4.8 4.8 0 0 1-.27-1.6zm1.42.16c0 .4.05.78.15 1.13.1.36.24.67.44.94.2.27.44.48.73.64.3.16.64.24 1.03.24s.73-.08 1.02-.24c.3-.16.54-.37.74-.64.2-.27.34-.58.44-.94.1-.35.15-.73.15-1.13v-.16c0-.4-.05-.77-.15-1.13a2.9 2.9 0 0 0-.45-.94 2.13 2.13 0 0 0-1.77-.88 2.07 2.07 0 0 0-1.74.88c-.2.27-.34.58-.44.94-.1.36-.15.73-.15 1.13zm15.9-4.1v8.02h-1.41v-6.88h-2.8l-.1 2.3c-.04.76-.11 1.42-.21 2-.1.57-.25 1.04-.46 1.43-.21.38-.49.67-.84.86-.34.19-.78.29-1.3.29h-.41l.03-1.23h.3c.28 0 .5-.07.68-.2.17-.12.32-.31.42-.58.1-.27.19-.62.24-1.04.06-.43.1-.94.13-1.53l.15-3.43zm9.72 0v8.02h-1.42v-3.12h-2.13l-1.95 3.12h-1.53l2.08-3.33a2.28 2.28 0 0 1-1.64-2.24c0-.35.07-.67.2-.97.15-.3.35-.56.62-.77.27-.22.6-.4.98-.52.4-.12.84-.18 1.34-.18zm-5.17 2.47c0 .16.03.32.09.48.06.15.15.3.27.42.13.12.29.21.48.3.2.07.43.1.7.1h2.21v-2.65h-2.03c-.3 0-.57.04-.78.12-.22.08-.4.18-.54.3a1.29 1.29 0 0 0-.4.92z"/><path id="e" d="M323.99 84.25s.47.01.7.03c1.88.1 3.57-.41 5.09-1.55a8.17 8.17 0 0 0 2.82-3.9c.45-1.28.47-2.63.47-3.97V67H344c-.03.14-.03.25-.08.31-1 1.34-2.01 2.65-2.99 4-1.1 1.53-2.16 3.1-3.25 4.64-2.18 3.1-4.37 6.19-6.54 9.3-1.23 1.76-2.42 3.57-3.65 5.34a9.4 9.4 0 0 0-1.76 4.6 68.84 68.84 0 0 0-.34 6.22c.04 7.17-.31 7.18.54 14.33.19 1.55.75 2.75 2.05 3.62 1.9 1.27 4.05 1.8 6.2 2.3 1.21.27 2.49.26 3.73.4.42.04.89.04 1.16.68-.27.1-.52.25-.77.25h-29.47c-.26 0-.52-.16-.8-.25.29-.64.77-.64 1.2-.68 1.26-.15 2.56-.13 3.8-.4 2.2-.5 4.4-1.04 6.34-2.3a4.63 4.63 0 0 0 2.1-3.62c.87-7.17.5-7.17.55-14.36 0-2.07-.17-4.16-.35-6.23a9.3 9.3 0 0 0-1.8-4.6c-1.26-1.77-2.47-3.58-3.73-5.35-2.21-3.1-4.46-6.2-6.68-9.3-1.11-1.55-2.2-3.12-3.33-4.65-1-1.35-2.04-2.67-3.05-4-.05-.07-.05-.18-.08-.31h11.17v7.87c0 1.34.02 2.7.48 3.97a8.18 8.18 0 0 0 2.88 3.9 7.8 7.8 0 0 0 5.2 1.55l.72-.02z"/><path id="f" d="M316.68 69.32V62l5.22 2.82c1-1.3 2.23-1.27 3.19 0l5.23-2.83v7.4c-.77-.4-1.48-.76-2.19-1.15-.91-.5-1.81-1.04-2.74-1.52-.14-.07-.46.02-.57.15-.73.88-1.94.91-2.62 0-.23-.31-.43-.25-.68-.1l-4.65 2.54c-.05.03-.1 0-.2 0zm5.84 1.12c0-.62.5-1.15 1.06-1.12.5.02.92.54.92 1.14 0 .6-.41 1.11-.92 1.13-.61.02-1.07-.47-1.06-1.15zm1.96 3.8c0 .63-.37 1.04-.96 1.06a1 1 0 0 1-1.02-1.07c.06-.67.4-1.1 1-1.1s.98.43.98 1.1zm0 3.76c0 .67-.38 1.07-1 1.07-.6 0-.97-.42-.96-1.1 0-.65.36-1.04.97-1.04.63 0 1 .39 1 1.07z"/></defs><use fill="#fff" xlink:href="#a" transform="translate(-301 -60)"/><use fill="#cf1518" xlink:href="#b" transform="translate(-301 -60)"/><use fill="#cf1518" xlink:href="#c" transform="translate(-301 -60)"/><use fill="#fff" xlink:href="#d" transform="translate(-301 -60)"/><use fill="#fff" xlink:href="#e" transform="translate(-301 -60)"/><use fill="#cf1518" xlink:href="#f" transform="translate(-301 -60)"/></svg>