<svg xmlns="http://www.w3.org/2000/svg" xmlns:xlink="http://www.w3.org/1999/xlink" width="78" height="95" viewBox="0 0 78 95"><defs><path id="a" d="M846.5 422a37.5 37.5 0 1 1 0 75 37.5 37.5 0 0 1 0-75z"/><path id="b" d="M846.5 463c-.26-.39-.5-.72-.71-1.06l-1.93-2.92-1.07-1.7c-.54-.84-1.1-1.68-1.63-2.53l-1.1-1.8-1.73-2.8-1.35-2.31-1.12-1.88c-.3-.5-.57-1.01-.86-1.52-.45-.8-.93-1.58-1.38-2.38-.45-.8-.87-1.6-1.3-2.42l-.98-1.87-1.36-2.71c-.28-.57-.58-1.13-.83-1.71-.34-.79-.66-1.59-.96-2.39-.19-.48-.37-.96-.5-1.46-.16-.65-.26-1.33-.4-2a15.4 15.4 0 0 1-.29-3.83c.03-.8.17-1.59.28-2.38.07-.48.13-.97.25-1.43.2-.77.41-1.54.7-2.28a17.2 17.2 0 0 1 1.59-3.25c.43-.67.93-1.3 1.39-1.95a19.4 19.4 0 0 1 8.42-6.17c.43-.17.88-.29 1.33-.42.37-.12.74-.25 1.12-.31.95-.16 1.9-.3 2.85-.4.7-.08 1.43-.14 2.13-.11.84.03 1.67.17 2.5.27.49.07.99.13 1.47.26a27.52 27.52 0 0 1 3.6 1.24c.72.36 1.41.8 2.13 1.16 1.04.54 1.92 1.3 2.78 2.05a20.93 20.93 0 0 1 4.33 5.6c.23.45.4.93.6 1.41.23.56.48 1.1.66 1.68.22.72.42 1.46.56 2.2.12.61.15 1.23.2 1.84.05.69.12 1.38.1 2.07 0 .8-.06 1.6-.17 2.4-.1.7-.32 1.38-.46 2.08-.2 1-.58 1.96-.97 2.9-.3.71-.66 1.4-.99 2.1-.37.77-.72 1.55-1.1 2.3-.4.79-.83 1.55-1.24 2.33-.37.72-.73 1.44-1.11 2.15-.31.59-.64 1.17-.97 1.75l-.84 1.5-1.16 1.98c-.56.97-1.11 1.95-1.7 2.91-.44.74-.93 1.46-1.38 2.2-.26.41-.5.85-.75 1.26l-1.8 2.9-1.64 2.6c-.62.96-1.27 1.9-1.9 2.87l-1.16 1.78-.15.2zm1.6-25.86c2.34-.02 5.66-1.55 8.22-4.54a12.15 12.15 0 0 0 2.98-7.87c.07-3.97-1.42-7.3-4.39-9.93a12.3 12.3 0 0 0-8.28-3.13 12.75 12.75 0 0 0-12.93 12.39c-.18 7.42 5.78 13.1 14.4 13.08z"/></defs><use fill="#cf1518" xlink:href="#a" opacity=".23" transform="translate(-807 -403)"/><use fill="#cf1518" xlink:href="#b" transform="translate(-807 -403)"/></svg>